<svg width="75" height="75" viewBox="0 0 75 75" fill="none" xmlns="http://www.w3.org/2000/svg">
<ellipse cx="49.0832" cy="19.1032" rx="5.5455" ry="5.54551" fill="#FFDD6A"/>
<mask id="path-2-inside-1_1_835" fill="white">
<ellipse cx="49.1167" cy="19.1368" rx="3.63326" ry="3.63326"/>
</mask>
<path d="M46.7499 19.1368C46.7499 17.8297 47.8095 16.7701 49.1167 16.7701V28.7701C54.437 28.7701 58.7499 24.4571 58.7499 19.1368H46.7499ZM49.1167 16.7701C50.4238 16.7701 51.4834 17.8297 51.4834 19.1368H39.4834C39.4834 24.4571 43.7964 28.7701 49.1167 28.7701V16.7701ZM51.4834 19.1368C51.4834 20.4439 50.4238 21.5035 49.1167 21.5035V9.50354C43.7964 9.50354 39.4834 13.8165 39.4834 19.1368H51.4834ZM49.1167 21.5035C47.8095 21.5035 46.7499 20.4439 46.7499 19.1368H58.7499C58.7499 13.8165 54.437 9.50354 49.1167 9.50354V21.5035Z" fill="#F8C30F" mask="url(#path-2-inside-1_1_835)"/>
<g style="mix-blend-mode:multiply" opacity="0.9">
<path fill-rule="evenodd" clip-rule="evenodd" d="M54.9292 41.7627C53.5745 41.7723 52.2622 42.3577 51.726 43.3189L50.8965 42.8573C51.6599 41.4888 53.3721 40.8253 54.9224 40.8143C56.3786 40.8039 57.9421 41.3767 58.5374 42.7685C60.145 43.2182 61.2392 45.031 60.7496 46.9869L59.8284 46.7569C60.1443 45.4947 59.5956 44.3996 58.7771 43.9004C58.7779 43.9312 58.7783 43.9622 58.7783 43.9934C58.7783 45.0455 58.448 45.9384 57.8644 46.4661C57.5689 46.7332 57.2085 46.9043 56.8102 46.9371C56.4117 46.9699 56.0098 46.8615 55.6348 46.6274C55.0459 46.2598 54.9433 45.5091 55.0282 44.9283C55.1175 44.3167 55.4378 43.6451 56.0026 43.2503C56.4502 42.9373 56.9191 42.7554 57.3836 42.6905C56.876 42.0846 55.9733 41.7552 54.9292 41.7627ZM57.7993 43.6118C57.4032 43.6067 56.9754 43.7279 56.5472 44.0272C56.2487 44.2359 56.0296 44.6421 55.9678 45.0651C55.9015 45.5189 56.0363 45.7597 56.1381 45.8232C56.3641 45.9643 56.5647 46.0057 56.7322 45.9919C56.8998 45.9781 57.0686 45.9063 57.2271 45.763C57.5515 45.4696 57.8287 44.8714 57.8287 43.9934C57.8287 43.8581 57.8185 43.7311 57.7993 43.6118Z" fill="#FE635A"/>
<path d="M34.5433 20.736L37.1389 24.9936C37.1812 24.9933 37.2236 24.9931 37.266 24.9931C46.6581 24.9931 54.272 32.5975 54.272 41.9781C54.272 46.7014 52.3416 49.0777 49.2258 52.1563L49.2394 52.1518C49.2194 52.1685 49.1995 52.1851 49.1797 52.2016C48.8243 52.5502 48.4536 52.8833 48.0687 53.1998C46.4042 54.851 45.9557 56.3298 46.995 59.2648H41.2973C41.2742 56.5705 39.0801 54.3935 36.377 54.3935C34.1562 54.3935 32.2789 55.863 31.6669 57.8815C31.4892 58.3482 31.4177 58.833 31.4133 59.2648H25.9749C25.5956 56.448 24.5576 54.2688 23.6507 52.7608C21.4593 49.117 17.2231 46.7101 13.8462 44.3491L13.8462 35.8135C13.8462 35.8135 17.5016 37.3224 20.692 33.4856C21.8959 32.0379 23.0997 30.8485 24.2827 29.8699C24.2832 29.8446 24.2859 29.8188 24.2911 29.7925L25.8305 21.9847C25.8972 21.6462 26.3153 21.5192 26.5594 21.7634L30.9461 26.1499C30.9694 26.1424 30.9927 26.1349 31.016 26.1275L33.4785 20.797C33.6811 20.3584 34.2918 20.3234 34.5433 20.736Z" fill="#FE635A"/>
</g>
<g style="mix-blend-mode:multiply" opacity="0.8">
<path fill-rule="evenodd" clip-rule="evenodd" d="M39.081 28.9988C38.2892 28.8797 37.7365 28.8827 37.4981 28.9231L37.2385 27.3897C37.7164 27.3088 38.4592 27.3326 39.3123 27.4609C40.1855 27.5922 41.2348 27.8423 42.3442 28.2543C44.5584 29.0767 47.061 30.5639 48.8517 33.0956L47.582 33.9937C46.0223 31.7886 43.8169 30.4604 41.8027 29.7122C40.7978 29.339 39.8528 29.1149 39.081 28.9988Z" fill="#D88F8B"/>
</g>
<rect x="35.7971" y="36.2019" width="2.88828" height="12.3619" fill="#FFFBF0"/>
<rect x="43.5377" y="40.9386" width="2.77275" height="12.3619" transform="rotate(90 43.5377 40.9386)" fill="#FFFBF0"/>
<g style="mix-blend-mode:multiply" opacity="0.8">
<ellipse cx="24.9371" cy="34.5266" rx="1.15531" ry="2.13733" fill="#D88F8B"/>
</g>
<path opacity="0.12" fill-rule="evenodd" clip-rule="evenodd" d="M17.0192 59.4231C17.0192 60.3789 25.543 61.1538 36.0577 61.1538C46.5722 61.1538 55.0962 60.3789 55.0962 59.4231C55.0962 58.467 46.5722 57.6923 36.0577 57.6923C25.543 57.6923 17.0192 58.467 17.0192 59.4231Z" fill="#2B7285"/>
</svg>