<svg width="67" height="63" viewBox="0 0 67 63" fill="none" xmlns="http://www.w3.org/2000/svg">
<g style="mix-blend-mode:multiply">
<circle cx="30.5264" cy="22.8882" r="22.2881" fill="#E2F4FE" fill-opacity="0.75"/>
</g>
<g style="mix-blend-mode:multiply" opacity="0.834287">
<path d="M45.9736 29.4243C45.9736 29.4243 55.3174 34.6505 51.8104 62.3085H56.0549C56.0549 62.3085 57.3156 34.9259 48.9348 30.1447L45.9736 29.4243Z" fill="#FFDD6A"/>
</g>
<g style="mix-blend-mode:multiply" opacity="0.85">
<path d="M47.4073 20.519C47.4073 20.519 42.1053 22.5743 45.9729 29.4243L47.4073 28.7064L46.2773 29.8413L48.3824 32.7401L49.9552 32.229L48.8905 33.7866L51.0198 36.1221L51.6973 35.6873L51.4554 36.5086C51.4554 36.5086 53.5842 38.489 54.4799 37.9576L47.4073 20.519Z" fill="#2B7285"/>
</g>
<g style="mix-blend-mode:multiply" opacity="0.85">
<path d="M47.4072 20.5189C47.4072 20.5189 52.5064 19.9811 54.8322 24.4033L52.9623 25.1725H54.4785L55.425 29.6909L53.3756 30.1919H55.5775V30.5161L51.8062 31.062L55.7086 31.4326C55.7086 31.4326 56.6058 36.5607 54.4785 37.9574L47.4072 20.5189Z" fill="#2B7285"/>
</g>
<g style="mix-blend-mode:multiply" opacity="0.85">
<path d="M47.0293 21.8085L57.3148 7.77026C57.3148 7.77026 58.3737 9.40812 57.5863 11.23H56.2507L57.355 11.7412L56.5357 14.3101L54.3807 14.4154L56.2507 15.7387L55.0752 17.9351L52.3129 17.3495L54.689 18.8521C54.6885 18.8526 51.2192 24.7585 47.0293 21.8085Z" fill="#2B7285"/>
</g>
<g style="mix-blend-mode:multiply" opacity="0.71">
<path d="M47.03 21.8084C47.03 21.8084 43.2239 19.284 46.8766 14.6183L47.9587 15.5382L47.2715 14.0487L52.4539 9.65158L54.0504 10.8073L53.6226 8.77516C53.6226 8.77516 55.1165 7.32911 57.315 7.77022L47.03 21.8084Z" fill="#2B7285"/>
</g>
<g style="mix-blend-mode:multiply" opacity="0.85">
<path d="M46.0856 21.8084C46.0856 21.8084 46.1654 15.7643 41.1809 14.1849L40.4371 16.0406V13.8414L37.2218 12.5364L36.5613 14.5037L35.559 12.319C35.559 12.319 29.9691 10.384 28.7051 12.319L46.0856 21.8084Z" fill="#2B7285"/>
</g>
<g style="mix-blend-mode:multiply" opacity="0.85">
<path d="M46.0354 21.2189C46.0354 21.2189 41.7129 17.5282 37.4993 24.1714L38.8117 25.0927L37.2752 24.6362L35.714 27.8592L36.9089 29.0009L35.0307 28.8013L33.9782 31.779L34.6823 32.1693L33.8436 32.3452C33.8436 32.3452 33.1037 35.1547 33.9961 35.691L46.0354 21.2189Z" fill="#2B7285"/>
</g>
<g style="mix-blend-mode:multiply" opacity="0.58">
<path d="M46.0354 21.219C46.0354 21.219 48.923 25.4484 46.1225 29.5875L44.5589 28.3067L45.2766 29.6407L41.7381 32.611L40.3264 31.0461L41.3683 32.9821L41.0823 33.1357L38.8151 30.0774L40.3361 33.6846C40.3361 33.6846 36.2357 36.9008 33.9961 35.6911L46.0354 21.219Z" fill="#2B7285"/>
</g>
<g style="mix-blend-mode:multiply" opacity="0.85">
<path d="M49.2701 22.6606L66.5247 25.0623C66.5247 25.0623 65.581 26.7683 63.6008 26.9384L62.9688 25.7634L63.0399 26.9766L60.3851 27.4723L59.273 25.6271L58.9904 27.8979L56.4957 27.9037L55.7049 25.1971L55.5031 27.9979C55.5031 27.9979 48.6506 27.7414 49.2701 22.6606Z" fill="#2B7285"/>
</g>
<g style="mix-blend-mode:multiply" opacity="0.85">
<path d="M49.2705 22.6607C49.2705 22.6607 49.6973 18.1187 55.5423 19.1227L55.2427 20.5098L56.2309 19.201L62.5637 21.6775L62.3004 23.6285L63.8906 22.2907C63.8906 22.2907 65.8738 22.9202 66.5247 25.062L49.2705 22.6607Z" fill="#2B7285"/>
</g>
<path d="M7.752 22.5395L10.7141 21.7131L15.2336 22.0758L10.5784 23.3731L7.752 22.5395Z" fill="#2B7285"/>
<path opacity="0.6" d="M7.752 22.5395L10.7141 21.7131L15.2336 22.0758L10.5784 23.3731L7.752 22.5395Z" fill="#00C4A3"/>
<path d="M0.5 24.6061L4.73345 23.4252L7.04115 24.0433L24.2499 19.246C24.2499 19.246 26.8602 18.7891 26.957 19.6564L4.73345 25.8154L0.5 24.6061Z" fill="#00C4A3"/>
<path d="M24.9028 21.2731L6.42421 26.4239L4.73346 25.8149L27.0208 19.603C27.0208 19.6035 27.5822 20.5266 24.9028 21.2731Z" fill="#2B7285"/>
<path d="M24.9028 21.2731L6.42421 26.4239L4.73346 25.8149L27.0208 19.603C27.0208 19.6035 27.5822 20.5266 24.9028 21.2731Z" fill="#00A585"/>
<path opacity="0.7" d="M9.22852 27.7139L12.1906 26.8895L21.3017 20.9243L14.8121 22.7339L9.22852 27.7139Z" fill="#00C4A3"/>
<path opacity="0.602353" d="M42.3693 21.2278C43.2205 20.9465 43.9794 20.8985 44.5894 20.9856L44.6507 20.9949C44.7076 21.0042 44.7513 21.0131 44.7811 21.0203L44.7948 21.0238L44.7457 21.2102L44.7009 21.2001C44.6618 21.1921 44.6154 21.1839 44.5621 21.1763C43.9802 21.0933 43.2509 21.1394 42.4298 21.4108C41.234 21.8059 40.0562 22.62 38.9509 23.9517L38.8817 24.036L38.8127 24.1215L38.6621 24.0012C38.7087 23.9428 38.7556 23.8853 38.8026 23.8287C39.9307 22.4695 41.1388 21.6344 42.3693 21.2278Z" fill="white"/>
<path opacity="0.602353" d="M31.0757 12.9165L42.136 18.9494L42.0437 19.1186L30.9834 13.0857L31.0757 12.9165Z" fill="white"/>
</svg>
