<svg width="63" height="59" viewBox="0 0 63 59" fill="none" xmlns="http://www.w3.org/2000/svg">
<g style="mix-blend-mode:multiply" opacity="0.75">
<path d="M15.2664 35.6501H47.2855L47.8498 36.1001V55.7501H14.6998V36.1001L15.2664 35.6501Z" fill="#00C5A3"/>
</g>
<g style="mix-blend-mode:multiply" opacity="0.8">
<rect x="27" y="39.55" width="8.55" height="15.6" fill="#00C5A3"/>
</g>
<g style="mix-blend-mode:multiply" opacity="0.8">
<path d="M18 42.775C18 40.9939 19.4439 39.55 21.225 39.55C23.0061 39.55 24.45 40.9939 24.45 42.775V47.95H18V42.775Z" fill="#00C5A3"/>
</g>
<g style="mix-blend-mode:multiply" opacity="0.8">
<path d="M38.1002 42.7751C38.1002 40.9939 39.5441 39.55 41.3252 39.55C43.1063 39.55 44.5502 40.9939 44.5502 42.7751V47.95H38.1002V42.7751Z" fill="#00C5A3"/>
</g>
<g style="mix-blend-mode:multiply">
<rect x="28.1998" y="40.9001" width="2.7" height="3.59999" fill="#00C5A3"/>
</g>
<g style="mix-blend-mode:multiply">
<path d="M18.9 42.5501C18.9 41.4731 19.773 40.6001 20.85 40.6001V43.4501H18.9V42.5501Z" fill="#00C5A3"/>
</g>
<g style="mix-blend-mode:multiply">
<path d="M39 42.5501C39 41.4731 39.873 40.6001 40.95 40.6001V43.4501H39V42.5501Z" fill="#00C5A3"/>
</g>
<g style="mix-blend-mode:multiply">
<rect x="18.9" y="44.2001" width="1.95" height="2.84999" fill="#00C5A3"/>
</g>
<g style="mix-blend-mode:multiply">
<rect x="39" y="44.2001" width="1.95" height="2.84999" fill="#00C5A3"/>
</g>
<g style="mix-blend-mode:multiply">
<rect x="31.8" y="40.9001" width="2.7" height="3.59999" fill="#00C5A3"/>
</g>
<g style="mix-blend-mode:multiply">
<path d="M21.6002 40.6001C22.6771 40.6001 23.5502 41.4731 23.5502 42.5501V43.4501H21.6002V40.6001Z" fill="#00C5A3"/>
</g>
<g style="mix-blend-mode:multiply">
<path d="M41.6998 40.6001C42.7768 40.6001 43.6498 41.4731 43.6498 42.5501V43.4501H41.6998V40.6001Z" fill="#00C5A3"/>
</g>
<g style="mix-blend-mode:multiply">
<rect x="21.6002" y="44.2001" width="1.95" height="2.84999" fill="#00C5A3"/>
</g>
<g style="mix-blend-mode:multiply">
<rect x="41.6998" y="44.2001" width="1.95" height="2.84999" fill="#00C5A3"/>
</g>
<g style="mix-blend-mode:multiply">
<rect x="28.1998" y="45.1001" width="2.7" height="3.75" fill="#00C5A3"/>
</g>
<g style="mix-blend-mode:multiply">
<rect x="31.8" y="45.1001" width="2.7" height="3.75" fill="#00C5A3"/>
</g>
<g style="mix-blend-mode:multiply" opacity="0.7">
<path d="M31.2748 22.9001L47.8498 36.1002H14.6998L31.2748 22.9001Z" fill="#00C5A3"/>
</g>
<ellipse opacity="0.11" cx="31.2" cy="56.125" rx="31.05" ry="2.325" fill="#2B7285"/>
<g style="mix-blend-mode:multiply">
<path d="M18.8911 17.4263C18.3317 19.1211 16.0567 21.384 14.352 20.8389C12.6474 20.2937 12.1584 17.147 12.7178 15.4522C13.2785 13.758 15.1151 12.8276 16.8192 13.3742C18.5215 13.92 19.4483 15.7331 18.8911 17.4263Z" fill="#00C5A3"/>
</g>
<path opacity="0.321661" d="M14.0113 20.5933L14.1254 20.5885L14.13 20.6269C14.1334 20.6578 14.1371 20.6938 14.1408 20.7346C14.1514 20.8508 14.1604 20.982 14.1664 21.1257C14.1836 21.536 14.1741 21.9638 14.1278 22.3878C13.9893 23.6554 13.5587 24.6233 12.7425 25.0992L12.7121 25.1166C11.9268 25.5576 11.823 26.6149 12.2173 28.0644C12.3516 28.5583 12.5351 29.0623 12.745 29.5492C12.8185 29.7197 12.8899 29.8758 12.9566 30.0141L12.996 30.095L13.0418 30.186L12.9417 30.2349L12.9182 30.1888C12.9033 30.159 12.8866 30.1253 12.8684 30.0879L12.8545 30.0592C12.7871 29.9191 12.7148 29.7613 12.6405 29.5891C12.4284 29.0968 12.2428 28.5871 12.1066 28.0865C11.7037 26.6054 11.8063 25.5049 12.625 25.0245L12.65 25.0101C13.4506 24.5605 13.8766 23.6146 14.0133 22.3632C14.0589 21.9457 14.0683 21.524 14.0513 21.1194C14.0454 20.9779 14.0366 20.8487 14.0261 20.7344L14.0197 20.6678L14.0113 20.5933Z" fill="#2B7285"/>
<g style="mix-blend-mode:multiply">
<path d="M10.8248 19.4823C11.4746 20.9929 11.2675 23.9216 9.73346 24.5612C8.19915 25.2011 5.91886 23.3089 5.26911 21.7988C4.61936 20.2887 5.33656 18.5457 6.87064 17.9061C8.40491 17.2667 10.1751 17.9722 10.8248 19.4823Z" fill="#FE635A"/>
</g>
<ellipse opacity="0.4" rx="0.631689" ry="0.756803" transform="matrix(-0.926195 0.388931 -0.390896 -0.915385 8.71773 18.9778)" fill="white"/>
<ellipse opacity="0.4" rx="0.766373" ry="0.904828" transform="matrix(-0.986082 0.166262 -0.172566 -0.984998 17.2621 16.2688)" fill="white"/>
<g style="mix-blend-mode:multiply">
<path d="M21.7385 24.7368C21.0898 26.2328 18.8509 28.1125 17.3654 27.4859C15.8803 26.8594 15.7108 23.9639 16.3592 22.4679C17.0077 20.9719 18.7378 20.2672 20.2229 20.894C21.7081 21.5203 22.3869 23.2409 21.7385 24.7368Z" fill="#FFDD6A"/>
</g>
<ellipse opacity="0.4" rx="0.660552" ry="0.781777" transform="matrix(-0.935123 0.354322 -0.359498 -0.933146 20.5486 23.1135)" fill="white"/>
<path opacity="0.362095" d="M17.1548 27.2091L17.2048 27.298L17.1806 27.3186L17.1657 27.3317C17.1337 27.36 17.0972 27.3934 17.0571 27.4317C16.9422 27.5413 16.821 27.6678 16.6992 27.8094C16.2271 28.3581 15.884 28.965 15.7646 29.5986C15.7274 29.7958 15.7131 29.9924 15.7232 30.188L15.7259 30.2332C15.7413 30.4504 15.7274 30.6686 15.6864 30.887C15.5622 31.5488 15.2025 32.1744 14.7076 32.737C14.5798 32.8824 14.4523 33.0122 14.3312 33.1247L14.29 33.1625C14.2767 33.1746 14.2639 33.1861 14.2515 33.197L14.2159 33.2281C14.2011 33.2407 14.1894 33.2506 14.181 33.2575L14.1726 33.2644L14.1239 33.1744L14.1423 33.1593C14.1484 33.1541 14.1557 33.1479 14.1641 33.1407L14.1986 33.1106C14.2226 33.0895 14.2484 33.0661 14.2759 33.0405C14.3941 32.9307 14.5185 32.804 14.6434 32.662C15.1236 32.116 15.4714 31.5112 15.5903 30.8779C15.6264 30.6853 15.6403 30.4931 15.6305 30.3015L15.6278 30.2573C15.6121 30.0357 15.6264 29.8128 15.6684 29.5894C15.7931 28.9279 16.1477 28.3007 16.634 27.7354C16.7587 27.5905 16.8828 27.461 17.0006 27.3486C17.035 27.3158 17.0669 27.2864 17.0958 27.2605L17.1413 27.2205L17.1548 27.2091Z" fill="#2B7285"/>
<path opacity="0.362095" d="M9.30647 24.4424L9.41887 24.467L9.41606 24.5021L9.4146 24.524C9.41161 24.5712 9.40919 24.6258 9.40774 24.687C9.40357 24.8622 9.408 25.055 9.42416 25.2594C9.4868 26.0519 9.70078 26.7815 10.1174 27.3472C10.247 27.5232 10.3946 27.68 10.5612 27.8161L10.6 27.8472C10.7884 27.9949 10.9539 28.1673 11.0976 28.3622C11.5331 28.9526 11.7488 29.7095 11.8043 30.5309C11.8186 30.7432 11.8206 30.9436 11.8138 31.1261L11.8112 31.1878C11.8102 31.2076 11.8091 31.2266 11.8079 31.2448L11.8043 31.297C11.8026 31.3185 11.8011 31.3354 11.7999 31.3474L11.7987 31.3594L11.6865 31.3329L11.6891 31.3067C11.6898 31.2978 11.6907 31.2872 11.6917 31.275L11.6952 31.2245C11.6974 31.1893 11.6994 31.1508 11.7009 31.1093C11.7076 30.9313 11.7055 30.7356 11.6916 30.5283C11.6378 29.7312 11.4291 28.9993 11.0124 28.4343C10.8857 28.2625 10.7413 28.1093 10.5782 27.976L10.5402 27.9456C10.348 27.7949 10.179 27.6186 10.0322 27.4192C9.59725 26.8288 9.3761 26.0747 9.31157 25.2584C9.29503 25.0491 9.29049 24.8517 9.29476 24.672C9.29601 24.6195 9.29795 24.5717 9.30036 24.5289L9.30479 24.4619L9.30647 24.4424Z" fill="#2B7285"/>
<g style="mix-blend-mode:multiply" opacity="0.55">
<ellipse cx="51.7855" cy="11.713" rx="8.12432" ry="8.1993" transform="rotate(-150 51.7855 11.713)" fill="#FFDB94"/>
</g>
<g style="mix-blend-mode:multiply" opacity="0.427037">
<path fill-rule="evenodd" clip-rule="evenodd" d="M54.1517 56.1339C54.1517 56.1339 56.7606 54.7101 56.3201 51.7162C55.8795 48.7223 58.0155 45.8111 58.0155 45.8111C58.0155 45.8111 53.3409 46.5031 52.8232 50.266C52.3055 54.0289 54.1517 56.1339 54.1517 56.1339Z" fill="#00C5A3"/>
</g>
<g style="mix-blend-mode:multiply" opacity="0.427037">
<path fill-rule="evenodd" clip-rule="evenodd" d="M49.0034 49.1367C49.0034 49.1367 51.3153 50.7339 51.0123 52.7111C50.7092 54.6883 53.9654 56.0861 53.9654 56.0861C53.9654 56.0861 54.1273 48.1543 49.0034 49.1367Z" fill="#00C5A3"/>
</g>
<g style="mix-blend-mode:multiply" opacity="0.427037">
<path fill-rule="evenodd" clip-rule="evenodd" d="M59.6963 49.4945C59.6963 49.4945 57.3622 51.0162 57.649 52.9869C57.9357 54.9575 54.3162 56.1468 54.3162 56.1468C54.3162 56.1468 54.5631 48.3791 59.6963 49.4945Z" fill="#00C5A3"/>
</g>
<g style="mix-blend-mode:multiply">
<path fill-rule="evenodd" clip-rule="evenodd" d="M31.1999 21.1001L50.0999 36.1001H47.1754L31.1999 23.4214L15.2595 36.1001H12.2999L31.1999 21.1001Z" fill="#00C5A3"/>
</g>
<g style="mix-blend-mode:multiply" opacity="0.75">
<path fill-rule="evenodd" clip-rule="evenodd" d="M31.1999 21.1001L50.0999 36.1001H47.1754L31.1999 23.4214L15.2595 36.1001H12.2999L31.1999 21.1001Z" fill="#00C5A3"/>
</g>
<g style="mix-blend-mode:multiply">
<circle cx="31.2748" cy="30.4751" r="2.5" fill="#00C5A3"/>
<circle cx="31.2748" cy="30.4751" r="2.5" stroke="#00C5A3" stroke-width="1.15"/>
</g>
<mask id="mask0_1_222" style="mask-type:alpha" maskUnits="userSpaceOnUse" x="29" y="28" width="5" height="5">
<g style="mix-blend-mode:multiply">
<ellipse cx="31.2748" cy="30.4751" rx="2.15904" ry="2.15904" fill="#00C5A3"/>
</g>
</mask>
<g mask="url(#mask0_1_222)">
<g style="mix-blend-mode:multiply">
<mask id="path-36-inside-1_1_222" fill="white">
<path fill-rule="evenodd" clip-rule="evenodd" d="M31.2748 32.6341C32.4672 32.6341 33.4338 31.6675 33.4338 30.4751C33.4338 29.2827 32.4672 28.316 31.2748 28.316C30.0824 28.316 29.1158 29.2827 29.1158 30.4751C29.1158 31.6675 30.0824 32.6341 31.2748 32.6341ZM240.319 229.745H245.204V246.32H262.128V251.205H245.204V268.128H240.319V251.205H223.745V246.32H240.319V229.745Z"/>
</mask>
<path fill-rule="evenodd" clip-rule="evenodd" d="M31.2748 32.6341C32.4672 32.6341 33.4338 31.6675 33.4338 30.4751C33.4338 29.2827 32.4672 28.316 31.2748 28.316C30.0824 28.316 29.1158 29.2827 29.1158 30.4751C29.1158 31.6675 30.0824 32.6341 31.2748 32.6341ZM240.319 229.745H245.204V246.32H262.128V251.205H245.204V268.128H240.319V251.205H223.745V246.32H240.319V229.745Z" fill="#00C5A3"/>
<path d="M245.204 229.745H250.204V224.745H245.204V229.745ZM240.319 229.745V224.745H235.319V229.745H240.319ZM245.204 246.32H240.204V251.32H245.204V246.32ZM262.128 246.32H267.128V241.32H262.128V246.32ZM262.128 251.205V256.205H267.128V251.205H262.128ZM245.204 251.205V246.205H240.204V251.205H245.204ZM245.204 268.128V273.128H250.204V268.128H245.204ZM240.319 268.128H235.319V273.128H240.319V268.128ZM240.319 251.205H245.319V246.205H240.319V251.205ZM223.745 251.205H218.745V256.205H223.745V251.205ZM223.745 246.32V241.32H218.745V246.32H223.745ZM240.319 246.32V251.32H245.319V246.32H240.319ZM28.4338 30.4751C28.4338 28.9061 29.7058 27.6341 31.2748 27.6341V37.6341C35.2286 37.6341 38.4338 34.4289 38.4338 30.4751H28.4338ZM31.2748 33.316C29.7058 33.316 28.4338 32.0441 28.4338 30.4751H38.4338C38.4338 26.5212 35.2286 23.316 31.2748 23.316V33.316ZM34.1158 30.4751C34.1158 32.0441 32.8438 33.316 31.2748 33.316V23.316C27.321 23.316 24.1158 26.5212 24.1158 30.4751H34.1158ZM31.2748 27.6341C32.8438 27.6341 34.1158 28.9061 34.1158 30.4751H24.1158C24.1158 34.4289 27.321 37.6341 31.2748 37.6341V27.6341ZM245.204 224.745H240.319V234.745H245.204V224.745ZM250.204 246.32V229.745H240.204V246.32H250.204ZM262.128 241.32H245.204V251.32H262.128V241.32ZM267.128 251.205V246.32H257.128V251.205H267.128ZM245.204 256.205H262.128V246.205H245.204V256.205ZM250.204 268.128V251.205H240.204V268.128H250.204ZM240.319 273.128H245.204V263.128H240.319V273.128ZM235.319 251.205V268.128H245.319V251.205H235.319ZM223.745 256.205H240.319V246.205H223.745V256.205ZM218.745 246.32V251.205H228.745V246.32H218.745ZM240.319 241.32H223.745V251.32H240.319V241.32ZM235.319 229.745V246.32H245.319V229.745H235.319Z" fill="#00C5A3" mask="url(#path-36-inside-1_1_222)"/>
</g>
</g>
</svg>